# xmcd CD database file
#
# Track frame offsets:
#	150
#	17540
#	35637
#	51585
#	79830
#	94197
#	99952
#	125182
#	133620
#	154375
#
# Disc length: 2177 seconds
#
# Revision: 2
# Processed by: cddbd v1.5PL3 Copyright (c) Steve Scherf et al.
# Submitted via: CDex 1.51
#
DISCID=86087f0a
DTITLE=Jon Brown - 70 Years Coming
DYEAR=1999
DGENRE=Blues
TTITLE0=30 Days
TTITLE1=Baby What's Wrong With You?
TTITLE2=Gone Away
TTITLE3=Cry No More
TTITLE4=Hi Y Hi
TTITLE5=Make It Snappy
TTITLE6=There Was A Time (featuring Carl Hancock Rux)
TTITLE7=30 Days (Reprise)
TTITLE8=Sing The Blues
TTITLE9=Silent Night
EXTD=YEAR: 1999
EXTT0=
EXTT1=
EXTT2=
EXTT3=
EXTT4=
EXTT5=
EXTT6=
EXTT7=
EXTT8=
EXTT9=
PLAYORDER=
